<svg xmlns="http://www.w3.org/2000/svg" viewBox="0 0 600 306" font-family="ui-sans-serif, system-ui, sans-serif">
  <text x="16" y="24" font-size="13" font-weight="700" fill="#3a3f45">Each dimension is a wave of a different frequency</text>

  <!-- plot shifted below the title so the top wave never touches it -->
  <g transform="translate(0,26)">
  <!-- baselines -->
  <g stroke="#e2e6ea" stroke-width="1">
    <line x1="130" y1="34" x2="560" y2="34"/>
    <line x1="130" y1="95" x2="560" y2="95"/>
    <line x1="130" y1="156" x2="560" y2="156"/>
    <line x1="130" y1="217" x2="560" y2="217"/>
  </g>

  <!-- waves -->
  <path d="M130.0,34.0 L141.9,19.3 L146.7,19.9 L153.9,28.0 L161.1,39.9 L168.2,48.1 L173.0,48.7 L180.2,41.9 L187.3,30.0 L194.5,20.7 L199.3,19.0 L206.4,24.4 L213.6,35.9 L220.8,46.2 L225.6,49.0 L232.7,45.1 L239.9,34.2 L247.1,23.2 L254.2,19.0 L261.4,24.4 L268.6,35.8 L275.7,46.1 L282.9,48.7 L290.1,42.0 L297.2,30.2 L304.4,20.8 L309.2,19.0 L316.3,24.3 L323.5,35.7 L330.7,46.1 L337.8,48.8 L345.0,42.1 L352.2,30.3 L359.3,20.9 L364.1,19.0 L371.3,24.2 L378.4,35.6 L385.6,46.0 L392.8,48.8 L399.9,42.2 L407.1,30.4 L414.3,20.9 L419.1,19.0 L426.2,24.1 L433.4,35.5 L440.6,45.9 L447.7,48.8 L454.9,42.3 L462.1,30.5 L469.2,21.0 L474.0,19.0 L481.2,24.1 L488.3,35.4 L495.5,45.9 L502.7,48.8 L509.8,42.3 L517.0,30.6 L524.2,21.0 L528.9,19.0 L536.1,24.0 L543.3,35.3 L550.4,45.8 L557.6,48.8 L560.0,47.6" fill="none" stroke="#3a55a0" stroke-width="1.6"/>
  <path d="M130.0,95.0 L144.3,84.8 L153.9,80.8 L161.1,80.0 L170.6,82.3 L180.2,87.6 L192.1,96.7 L204.1,105.1 L213.6,109.2 L220.8,110.0 L227.9,108.7 L237.5,104.1 L249.4,95.4 L261.4,86.6 L270.9,81.7 L280.5,80.0 L290.1,82.0 L299.6,87.2 L311.6,96.2 L323.5,104.7 L333.1,109.0 L340.2,110.0 L347.4,108.9 L356.9,104.5 L368.9,95.9 L380.8,86.9 L390.4,81.9 L399.9,80.0 L409.5,81.8 L419.1,86.9 L431.0,95.8 L442.9,104.4 L452.5,108.9 L459.7,110.0 L466.8,109.1 L476.4,104.8 L488.3,96.3 L500.3,87.3 L509.8,82.1 L519.4,80.0 L528.9,81.6 L538.5,86.5 L550.4,95.3 L560.0,102.5" fill="none" stroke="#3a55a0" stroke-width="1.6"/>
  <path d="M130.0,156.0 L149.1,148.5 L163.4,144.1 L177.8,141.5 L187.3,141.0 L199.3,141.8 L213.6,144.7 L227.9,149.3 L242.3,154.9 L256.6,160.7 L270.9,165.8 L282.9,168.9 L294.8,170.7 L302.0,171.0 L311.6,170.5 L323.5,168.6 L337.8,164.5 L352.2,159.2 L366.5,153.4 L380.8,147.9 L392.8,144.3 L404.7,141.9 L414.3,141.1 L423.8,141.2 L435.8,142.8 L450.1,146.6 L464.4,151.7 L478.8,157.5 L493.1,163.1 L505.1,167.0 L514.6,169.2 L523.0,170.5 L531.3,171.0 L540.9,170.6 L550.4,169.2 L560.0,167.0" fill="none" stroke="#3a55a0" stroke-width="1.6"/>
  <path d="M130.0,217.0 L149.1,214.0 L170.6,210.8 L192.1,207.9 L213.6,205.5 L235.1,203.6 L256.6,202.4 L278.1,202.0 L290.1,202.1 L302.0,202.4 L323.5,203.5 L345.0,205.3 L366.5,207.7 L388.0,210.6 L409.5,213.8 L431.0,217.2 L452.5,220.5 L474.0,223.7 L495.5,226.5 L517.0,228.9 L538.5,230.6 L560.0,231.7" fill="none" stroke="#3a55a0" stroke-width="1.6"/>

  <!-- row labels -->
  <g font-size="9.5" fill="#6b7280" text-anchor="end">
    <text x="120" y="37">dim 1</text>
    <text x="120" y="98">dim 2</text>
    <text x="120" y="159">dim 3</text>
    <text x="120" y="220">dim 512</text>
  </g>
  <text x="66" y="130" font-size="9.5" fill="#3a55a0" text-anchor="middle" transform="rotate(-90 66 130)">low dim → high dim</text>

  <!-- x axis -->
  <line x1="130" y1="248" x2="560" y2="248" stroke="#9aa0a6" stroke-width="1"/>
  <text x="345" y="266" font-size="10.5" font-weight="700" fill="#3a3f45" text-anchor="middle">token position →</text>

  <!-- annotations, placed in the clear gaps between wave bands -->
  <text x="345" y="66" font-size="9" fill="#6b7280" text-anchor="middle">top rows: fast waves flip between neighbouring positions</text>
  <text x="345" y="188" font-size="9" fill="#6b7280" text-anchor="middle">bottom rows: slow waves drift across the whole sentence</text>
  </g>
</svg>
